<?xml version="1.0" encoding="UTF-8" standalone="no"?>
<svg
    xmlns:dc="http://purl.org/dc/elements/1.1/"
    xmlns:cc="http://creativecommons.org/ns#"
    xmlns:rdf="http://www.w3.org/1999/02/22-rdf-syntax-ns#"
    xmlns:svg="http://www.w3.org/2000/svg"
    xmlns="http://www.w3.org/2000/svg"
    xmlns:sodipodi="http://sodipodi.sourceforge.net/DTD/sodipodi-0.dtd"
    xmlns:inkscape="http://www.inkscape.org/namespaces/inkscape"
    viewBox="0 0 64 64"
    enable-background="new 0 0 64 64"
    id="svg3573"
    version="1.1"
    inkscape:version="0.91 r13725"
    sodipodi:docname="smiling_emoji.svg">
    <metadata
        id="metadata3589">
        <rdf:RDF>
            <cc:Work
                rdf:about="">
                <dc:format>image/svg+xml</dc:format>
                <dc:type
                    rdf:resource="http://purl.org/dc/dcmitype/StillImage" />
            </cc:Work>
        </rdf:RDF>
    </metadata>
    <defs
        id="defs3587" />
    <sodipodi:namedview
        pagecolor="#ffffff"
        bordercolor="#666666"
        borderopacity="1"
        objecttolerance="10"
        gridtolerance="10"
        guidetolerance="10"
        inkscape:pageopacity="0"
        inkscape:pageshadow="2"
        inkscape:window-width="1855"
        inkscape:window-height="1056"
        id="namedview3585"
        showgrid="false"
        inkscape:zoom="14.359375"
        inkscape:cx="32"
        inkscape:cy="32"
        inkscape:window-x="65"
        inkscape:window-y="24"
        inkscape:window-maximized="1"
        inkscape:current-layer="svg3573" />
    <circle
        cx="32"
        cy="32"
        r="30"
        fill="#ffdd67"
        id="circle3575" />
    <g
        fill="#664e27"
        id="g3577">
        <circle
            cx="20.5"
            cy="26.6"
            r="5"
            id="circle3579" />
        <circle
            cx="43.5"
            cy="26.6"
            r="5"
            id="circle3581" />
        <path
            d="m44.6 40.3c-8.1 5.7-17.1 5.6-25.2 0-1-.7-1.8.5-1.2 1.6 2.5 4 7.4 7.7 13.8 7.7s11.3-3.6 13.8-7.7c.6-1.1-.2-2.3-1.2-1.6"
            id="path3583" />
    </g>
    <path
        style="fill:#00ff00"
        d="M 30.279869,61.92541 C 25.021257,61.627401 19.754991,59.871925 15.423682,56.973194 11.789823,54.541233 8.6849061,51.329023 6.4709022,47.711043 3.9085981,43.523894 2.4798108,39.084982 2.1042752,34.14494 2.0020634,32.800378 2.0583641,29.854122 2.2100726,28.608487 3.0511177,21.702913 5.9769466,15.652543 10.814744,10.814744 15.650243,5.979246 21.703133,3.0526551 28.608487,2.2114154 29.85811,2.059181 32.802261,2.0022065 34.14494,2.1042752 c 6.422876,0.4882588 12.174892,2.8173671 17.131665,6.9369609 0.940579,0.7817186 2.610423,2.4339319 3.430519,3.3942989 2.606441,3.052249 4.461675,6.311038 5.698557,10.009732 1.46062,4.367741 1.898864,8.854606 1.312787,13.440696 -1.253645,9.809873 -7.400538,18.457799 -16.282241,22.907122 -3.766329,1.886757 -7.582028,2.890591 -11.918055,3.1354 -1.410277,0.07962 -1.785291,0.07927 -3.238303,-0.0031 l 0,3e-6 z M 33.78207,49.531846 c 4.694526,-0.509379 8.998823,-3.108377 11.668105,-7.045371 0.710024,-1.047233 0.773092,-1.718467 0.208076,-2.214557 -0.382567,-0.335899 -0.6517,-0.279244 -1.559536,0.328291 -3.157899,2.113306 -6.551372,3.410799 -9.918954,3.792509 -0.994418,0.112715 -3.272554,0.113661 -4.248096,0.0018 -3.410675,-0.391215 -6.704317,-1.637503 -10.009072,-3.787353 -1.021798,-0.664713 -1.397208,-0.692402 -1.775562,-0.130962 -0.118794,0.176277 -0.158783,0.334814 -0.158783,0.62949 0,0.475768 0.161828,0.82383 0.783714,1.685627 2.504934,3.471286 6.401198,5.919362 10.498114,6.596108 0.478781,0.07909 0.995865,0.155185 1.149075,0.169107 0.64466,0.05857 2.73725,0.04324 3.362919,-0.02465 l 0,1e-6 z M 21.261371,31.563699 c 1.124193,-0.181582 1.930547,-0.603413 2.786923,-1.457932 0.959157,-0.957077 1.378508,-1.909586 1.441797,-3.274881 0.03114,-0.671773 0.0131,-0.898849 -0.110642,-1.392818 -0.575014,-2.295395 -2.513173,-3.82993 -4.849308,-3.839433 -2.232351,-0.0091 -4.065096,1.30717 -4.815143,3.458166 -0.177268,0.508373 -0.194132,0.642446 -0.192703,1.5321 0.0014,0.868222 0.02191,1.035973 0.187364,1.5321 0.262439,0.786941 0.630058,1.379952 1.233974,1.990532 1.173791,1.186747 2.726952,1.709114 4.317738,1.452166 z m 23.146715,-0.02641 c 1.979033,-0.378652 3.447656,-1.769764 3.97877,-3.768776 0.166592,-0.627022 0.15142,-1.769198 -0.0324,-2.439233 -0.612858,-2.233884 -2.55457,-3.731312 -4.838389,-3.731312 -0.839762,0 -1.46517,0.134933 -2.167541,0.467651 -1.006661,0.476863 -1.842404,1.299126 -2.332393,2.294772 -0.392895,0.798351 -0.51391,1.321605 -0.515396,2.228509 -0.0016,0.948071 0.08987,1.337115 0.528798,2.25028 0.294417,0.612515 0.429244,0.802182 0.916379,1.289106 1.204996,1.204478 2.837278,1.719897 4.462173,1.409003 z"
        id="path3591"
        inkscape:connector-curvature="0" />
</svg>
