<?xml version="1.0" encoding="UTF-8" standalone="no"?>
<svg
   xmlns:dc="http://purl.org/dc/elements/1.1/"
   xmlns:cc="http://creativecommons.org/ns#"
   xmlns:rdf="http://www.w3.org/1999/02/22-rdf-syntax-ns#"
   xmlns:svg="http://www.w3.org/2000/svg"
   xmlns="http://www.w3.org/2000/svg"
   xmlns:sodipodi="http://sodipodi.sourceforge.net/DTD/sodipodi-0.dtd"
   xmlns:inkscape="http://www.inkscape.org/namespaces/inkscape"
   viewBox="0 0 64 64"
   enable-background="new 0 0 64 64"
   id="svg3380"
   version="1.1"
   inkscape:version="0.91 r13725"
   sodipodi:docname="sad_emoji.svg">
  <metadata
     id="metadata3396">
    <rdf:RDF>
      <cc:Work
         rdf:about="">
        <dc:format>image/svg+xml</dc:format>
        <dc:type
           rdf:resource="http://purl.org/dc/dcmitype/StillImage" />
      </cc:Work>
    </rdf:RDF>
  </metadata>
  <defs
     id="defs3394" />
  <sodipodi:namedview
     pagecolor="#ffffff"
     bordercolor="#666666"
     borderopacity="1"
     objecttolerance="10"
     gridtolerance="10"
     guidetolerance="10"
     inkscape:pageopacity="0"
     inkscape:pageshadow="2"
     inkscape:window-width="1855"
     inkscape:window-height="1056"
     id="namedview3392"
     showgrid="false"
     inkscape:zoom="14.359375"
     inkscape:cx="32"
     inkscape:cy="32"
     inkscape:window-x="65"
     inkscape:window-y="24"
     inkscape:window-maximized="1"
     inkscape:current-layer="svg3380" />
  <circle
     cx="32"
     cy="32"
     r="30"
     fill="#ffdd67"
     id="circle3382" />
  <g
     fill="#664e27"
     id="g3384">
    <circle
       cx="20.5"
       cy="26.6"
       r="5"
       id="circle3386" />
    <circle
       cx="43.5"
       cy="26.6"
       r="5"
       id="circle3388" />
    <path
       d="m23 47.6c5.8-4.8 12.2-4.8 18 0 .7.6 1.3-.4.8-1.3-1.8-3.4-5.3-6.5-9.8-6.5s-8.1 3.1-9.8 6.5c-.5.9.1 1.9.8 1.3"
       id="path3390" />
  </g>
  <path
     style="fill:#ffd5d5"
     d="M 30.816104,61.9543 C 27.988642,61.828322 25.171151,61.316835 22.570796,60.457449 19.874917,59.566493 17.018427,58.12508 14.729053,56.500427 12.265297,54.752024 9.8430363,52.402672 8.0506802,50.023069 4.8527577,45.77738 2.8907555,40.883287 2.2157186,35.468118 2.0385231,34.04665 2.0381785,29.867035 2.2151473,28.538847 2.6041596,25.619226 3.151382,23.45036 4.1215962,20.982807 6.4816184,14.980547 10.923286,9.7197866 16.470126,6.3570738 19.639805,4.4354887 23.275737,3.0836613 26.951034,2.4603071 28.894576,2.1306696 29.628189,2.0752322 32.03482,2.0761377 c 2.905401,0.00109 4.59475,0.1973814 7.173015,0.8334449 11.302756,2.7884144 20.001943,11.9361684 22.212645,23.3580264 0.419169,2.165684 0.487388,2.967324 0.486636,5.718463 -6.26e-4,2.235902 -0.01955,2.68441 -0.157338,3.725789 -0.753598,5.695596 -2.863008,10.650408 -6.448479,15.146899 -0.914176,1.146455 -3.317909,3.544071 -4.482092,4.470686 -2.957852,2.35426 -6.021737,4.017835 -9.52724,5.172935 -3.25538,1.072683 -7.082517,1.603111 -10.475863,1.451919 z M 23.681889,47.113517 c 2.011837,-1.510001 3.895202,-2.402663 6.015897,-2.851366 0.783808,-0.16584 1.022741,-0.185045 2.302214,-0.185045 1.279473,0 1.518406,0.0192 2.302214,0.185045 2.14192,0.453194 4.054401,1.365096 6.086897,2.902332 0.866843,0.655619 1.051312,0.727458 1.343124,0.523065 0.190021,-0.133096 0.319777,-0.59234 0.262209,-0.928035 -0.09061,-0.528342 -1.149032,-2.159484 -2.069646,-3.189535 -1.688004,-1.888661 -3.73758,-3.11594 -6.044493,-3.619424 -0.463877,-0.10124 -0.878224,-0.128641 -1.915125,-0.126647 -1.182515,0.0023 -1.40628,0.02215 -2.104896,0.18696 -3.106078,0.732759 -5.866337,2.923793 -7.52481,5.973029 -0.156245,0.287268 -0.304562,0.634836 -0.329594,0.772371 -0.06015,0.330485 0.07125,0.797757 0.261885,0.931281 0.293325,0.205453 0.472479,0.13273 1.414124,-0.574031 z m -1.91132,-15.648361 c 1.648569,-0.443635 2.980347,-1.707651 3.52343,-3.344155 0.16104,-0.485269 0.185269,-0.673896 0.187852,-1.462459 0.0034,-1.029094 -0.09921,-1.511074 -0.485684,-2.282058 -0.511295,-1.019981 -1.288864,-1.793644 -2.293229,-2.28171 -0.738924,-0.359076 -1.370252,-0.49963 -2.228509,-0.496139 -2.206027,0.009 -4.046704,1.357134 -4.769706,3.493457 -0.218468,0.645528 -0.269939,1.880477 -0.108601,2.605659 0.365811,1.64425 1.698838,3.12446 3.293109,3.656709 0.238914,0.07976 0.599306,0.174634 0.80087,0.210827 0.479325,0.08607 1.586574,0.03278 2.080468,-0.100131 z m 23.008539,-0.0046 c 0.229815,-0.06035 0.684222,-0.239842 1.009793,-0.398877 0.477709,-0.233352 0.714336,-0.410618 1.226123,-0.918532 0.527863,-0.523868 0.687429,-0.736636 0.951847,-1.269215 0.439652,-0.885528 0.566177,-1.500276 0.518892,-2.521154 -0.05163,-1.114598 -0.283763,-1.789932 -0.927665,-2.698747 -0.913773,-1.289718 -2.403028,-2.048815 -4.032527,-2.055443 -0.858257,-0.0035 -1.489585,0.137063 -2.228509,0.496139 -1.00326,0.487529 -1.812275,1.29397 -2.30661,2.299272 -0.374585,0.761773 -0.475639,1.246289 -0.472303,2.264496 0.0026,0.788563 0.02681,0.97719 0.187852,1.462459 0.259268,0.781268 0.626014,1.373016 1.233063,1.989559 0.770077,0.78212 1.677719,1.265323 2.732539,1.454727 0.484802,0.08705 1.585547,0.03237 2.107505,-0.104684 z"
     id="path3398"
     inkscape:connector-curvature="0" />
  <path
     style="fill:#ffd5d5"
     d="m 19.450707,31.458903 c -0.268117,-0.05894 -0.784204,-0.250508 -1.146859,-0.425709 -0.561564,-0.271295 -0.753523,-0.412774 -1.294089,-0.953781 -0.515718,-0.51614 -0.689002,-0.746214 -0.924266,-1.227182 -0.634892,-1.297957 -0.720939,-2.590274 -0.260606,-3.913961 0.244286,-0.702446 0.561297,-1.197133 1.153568,-1.800112 1.37662,-1.401509 3.321931,-1.861516 5.163621,-1.221039 0.734984,0.255602 1.215349,0.569931 1.871397,1.224557 0.992653,0.9905 1.416344,2.006748 1.42269,3.412405 0.0043,0.958739 -0.08466,1.360802 -0.485545,2.193688 -0.628697,1.306204 -1.77006,2.268479 -3.136785,2.644601 -0.600155,0.165164 -1.765235,0.197966 -2.363126,0.06653 z"
     id="path3400"
     inkscape:connector-curvature="0" />
  <path
     style="fill:#ffd5d5"
     d="m 42.50185,31.469843 c -1.728338,-0.401098 -3.060491,-1.558736 -3.671516,-3.190538 -0.19024,-0.508054 -0.219452,-0.683712 -0.247164,-1.486234 -0.02681,-0.776591 -0.0098,-0.989058 0.11628,-1.448474 0.390952,-1.425032 1.337369,-2.577269 2.618504,-3.187957 0.805688,-0.384052 1.333577,-0.505128 2.193689,-0.50314 2.176595,0.005 4.031216,1.349797 4.707572,3.413409 0.1836,0.560176 0.20184,0.702775 0.199135,1.556812 -0.0026,0.830142 -0.02483,1.005344 -0.18973,1.49728 -0.256832,0.766185 -0.624539,1.363467 -1.200111,1.949384 -0.925163,0.941793 -2.014813,1.421051 -3.339332,1.468729 -0.505131,0.01818 -0.91303,-0.0056 -1.187327,-0.06927 z"
     id="path3402"
     inkscape:connector-curvature="0" />
  <path
     style="fill:#f9f9f9"
     d="m 22.20076,47.498585 c -0.214982,-0.352596 -0.180945,-0.753326 0.113178,-1.33247 1.145334,-2.255229 3.099436,-4.192276 5.379964,-5.333012 0.662791,-0.331532 1.970517,-0.743424 2.784457,-0.877013 0.878975,-0.144263 2.674654,-0.106387 3.492479,0.07367 2.796504,0.615682 5.35135,2.464118 7.122674,5.153269 0.850228,1.290781 1.027548,1.876555 0.701026,2.315835 -0.210156,0.282729 -0.484192,0.2837 -0.851778,0.003 -0.165398,-0.126295 -0.673587,-0.496647 -1.129307,-0.823005 -5.221585,-3.739373 -11.010381,-3.580199 -16.249925,0.44682 -0.699571,0.537678 -0.796532,0.593732 -1.032234,0.596753 -0.143874,0.0018 -0.227414,-0.05474 -0.330534,-0.223865 z"
     id="path3404"
     inkscape:connector-curvature="0" />
  <path
     style="fill:#f9f9f9"
     d="m 19.366954,31.391812 c -1.02164,-0.275226 -1.739755,-0.707775 -2.478134,-1.492676 -0.855504,-0.909406 -1.303183,-2.046563 -1.303183,-3.310235 0,-1.897476 1.052394,-3.549269 2.820457,-4.426866 0.75679,-0.375642 1.410528,-0.505322 2.33297,-0.462786 1.333337,0.06148 2.288403,0.500632 3.273123,1.505014 0.92179,0.940195 1.302431,1.792355 1.371866,3.071254 0.05598,1.031018 -0.05494,1.602729 -0.471311,2.429469 -0.56185,1.115588 -1.231365,1.800517 -2.258553,2.310552 -0.30642,0.152149 -0.776496,0.322532 -1.044613,0.378631 -0.610011,0.127634 -1.764601,0.12642 -2.242622,-0.0024 l 0,4e-6 z"
     id="path3406"
     inkscape:connector-curvature="0" />
  <path
     style="fill:#f9f9f9"
     d="m 42.327748,31.389462 c -0.210664,-0.05498 -0.68066,-0.246157 -1.044436,-0.424848 -0.54967,-0.270002 -0.762972,-0.426452 -1.262574,-0.926054 -0.503501,-0.503501 -0.652943,-0.708091 -0.919898,-1.259361 -0.410388,-0.847466 -0.460495,-1.089097 -0.461427,-2.225118 -7.03e-4,-0.857303 0.01691,-0.990952 0.199879,-1.516603 0.510484,-1.466579 1.560076,-2.528877 3.044457,-3.081311 0.578606,-0.215337 0.675949,-0.230324 1.523433,-0.234549 1.029539,-0.0051 1.503186,0.09471 2.29815,0.484423 1.26023,0.617804 2.234878,1.835245 2.582949,3.226386 0.165051,0.65966 0.110647,2.111451 -0.102057,2.723395 -0.41508,1.194175 -1.356833,2.27272 -2.459862,2.817163 -0.356289,0.17586 -0.867167,0.365518 -1.135285,0.421464 -0.614658,0.128254 -1.762456,0.125724 -2.263329,-0.005 z"
     id="path3408"
     inkscape:connector-curvature="0" />
  <path
     style="fill:#ff0000"
     d="M 30.001306,61.890251 C 29.867247,61.87495 29.397171,61.828634 28.956692,61.787327 23.735354,61.297685 18.254672,59.158922 14.037741,55.965404 8.1170242,51.481597 4.122102,45.173085 2.6673247,38.010011 2.2928408,36.166116 2.2181389,35.560071 2.1364515,33.703118 1.9709736,29.941401 2.2833862,27.012676 3.1948874,23.780767 5.4553549,15.765829 11.208788,8.854358 18.684657,5.1732534 c 2.668676,-1.314051 5.419852,-2.2016868 8.398717,-2.709751 1.887654,-0.3219513 2.77755,-0.3756941 5.487281,-0.3313893 3.040274,0.049709 4.044881,0.1696368 6.51879,0.7781974 2.290741,0.5635029 4.010398,1.1889467 6.1284,2.2289165 2.864776,1.4066461 5.280351,3.0994499 7.531885,5.278249 4.978359,4.817533 8.025135,10.856101 8.985066,17.807986 0.179066,1.296806 0.181012,6.289132 0.0029,7.486399 -0.563683,3.789472 -1.438267,6.649516 -2.970759,9.714907 -1.603387,3.207201 -3.552816,5.795935 -6.385333,8.479369 -4.579615,4.338579 -10.39717,7.035238 -16.948325,7.856195 -0.823004,0.103135 -4.823725,0.197349 -5.431991,0.127919 z M 23.777421,47.059518 c 1.840196,-1.306077 3.16851,-1.99127 4.831066,-2.492042 1.343658,-0.404717 2.005993,-0.483887 3.743087,-0.44742 1.464733,0.03075 1.546018,0.04003 2.459186,0.280837 2.015005,0.531358 3.507581,1.271781 5.521009,2.738811 0.956766,0.697122 1.177327,0.777098 1.434329,0.520095 0.128799,-0.128799 0.281875,-0.547114 0.282697,-0.772536 0.0011,-0.302244 -0.754268,-1.595548 -1.524152,-2.60957 -0.476594,-0.627726 -1.572994,-1.737546 -2.201248,-2.228192 -1.304402,-1.018695 -2.82254,-1.749577 -4.363865,-2.100909 -0.77179,-0.175923 -3.165252,-0.174222 -3.923404,0.0028 -2.130606,0.497444 -3.975288,1.543535 -5.579479,3.164036 -0.928558,0.937998 -2.022896,2.485548 -2.362686,3.341174 -0.244106,0.614684 0.0043,1.33797 0.459473,1.33797 0.127396,0 0.523506,-0.237876 1.223987,-0.735042 l 0,3e-6 z M 21.804154,31.466 c 0.933382,-0.246411 2.004556,-0.946089 2.592647,-1.693488 0.376909,-0.479009 0.814238,-1.302838 0.966593,-1.820843 0.132326,-0.449906 0.152786,-1.957664 0.03428,-2.525826 -0.275225,-1.319474 -1.422063,-2.730267 -2.731367,-3.360018 -0.775624,-0.373059 -1.321498,-0.475066 -2.345083,-0.438218 -1.073351,0.03864 -1.757706,0.239376 -2.516163,0.738048 -1.66659,1.095755 -2.480074,2.825994 -2.280268,4.850014 0.197077,1.996382 1.778741,3.766895 3.83394,4.291709 0.601836,0.153685 1.782203,0.133712 2.445426,-0.04138 z m 22.45109,0.09679 c 1.060464,-0.146147 2.027014,-0.651767 2.842906,-1.487174 0.583729,-0.597691 0.883151,-1.083933 1.170987,-1.901606 0.197195,-0.560183 0.21489,-0.684262 0.216132,-1.51547 0.0016,-1.044648 -0.103974,-1.54456 -0.485149,-2.29815 -0.512454,-1.01313 -1.276133,-1.766577 -2.294788,-2.264041 -0.744358,-0.36351 -1.300125,-0.4845 -2.231288,-0.485746 -0.93909,-0.0013 -1.385874,0.104149 -2.260373,0.533272 -1.170583,0.574415 -2.090245,1.662477 -2.550383,3.017385 -0.104839,0.308706 -0.130165,0.59247 -0.130525,1.462459 -4.17e-4,0.997735 0.01368,1.118095 0.186137,1.590223 0.590523,1.616612 1.994577,2.885611 3.643668,3.293187 0.575238,0.142171 1.143652,0.158887 1.892676,0.05566 z"
     id="path3410"
     inkscape:connector-curvature="0" />
  <path
     style="fill:#000000"
     d="m 19.65963,31.432488 c -1.142215,-0.190761 -2.337556,-0.931951 -3.066176,-1.901229 -0.70141,-0.933082 -0.970724,-1.741897 -0.968133,-2.907538 0.0021,-0.92258 0.11924,-1.452467 0.485156,-2.193688 0.465285,-0.942511 1.258625,-1.723824 2.264922,-2.230587 0.754042,-0.37973 1.186222,-0.478294 2.085102,-0.475533 1.433888,0.0044 2.325675,0.356736 3.335666,1.317874 1.003685,0.955135 1.374996,1.656796 1.542379,2.914606 0.145459,1.093054 -2.09e-4,1.870473 -0.549189,2.93051 -0.596197,1.151263 -1.703102,2.069575 -2.929285,2.4302 -0.446459,0.131306 -1.708775,0.197498 -2.200442,0.115385 z"
     id="path3412"
     inkscape:connector-curvature="0" />
  <path
     style="fill:#000000"
     d="m 42.745593,31.454225 c -0.403023,-0.052 -0.906619,-0.234519 -1.537905,-0.557377 -1.238742,-0.633527 -2.284812,-2.014858 -2.502301,-3.304276 -0.121057,-0.71771 -0.05474,-1.998551 0.130479,-2.520123 0.555194,-1.563398 1.659811,-2.637511 3.270385,-3.180074 0.339921,-0.114511 0.601718,-0.143518 1.295306,-0.143518 1.091885,0 1.443271,0.07244 2.268954,0.467781 0.563927,0.270008 0.748971,0.405355 1.253537,0.916877 0.656661,0.665714 0.964018,1.137426 1.237987,1.899984 0.165231,0.459901 0.183501,0.60792 0.183385,1.485761 -2.09e-4,1.62186 -0.313258,2.409843 -1.38503,3.486335 -0.662672,0.66559 -1.180304,0.990837 -2.031362,1.276376 -0.430108,0.144306 -1.652593,0.240749 -2.183435,0.172254 z"
     id="path3414"
     inkscape:connector-curvature="0" />
  <path
     style="fill:#000000"
     d="m 22.226987,47.476669 c -0.27643,-0.421886 -0.05761,-1.131621 0.713734,-2.31502 1.452256,-2.228045 3.674726,-4.009835 5.91471,-4.741919 1.362565,-0.445322 1.867555,-0.51521 3.444025,-0.476638 1.166891,0.02855 1.453069,0.05834 2.033569,0.211677 2.783487,0.735252 5.333924,2.737407 7.026209,5.515742 0.553452,0.90864 0.677149,1.456985 0.406332,1.801272 -0.251017,0.319117 -0.433163,0.254755 -1.569854,-0.554718 -1.139223,-0.811276 -1.642629,-1.120253 -2.607814,-1.600607 -4.033836,-2.007563 -8.427256,-1.76646 -12.422634,0.681732 -0.385226,0.23605 -1.076472,0.704972 -1.536102,1.04205 -0.936664,0.686919 -1.186995,0.764835 -1.402175,0.436429 z"
     id="path3416"
     inkscape:connector-curvature="0" />
</svg>
